<?xml version="1.0" standalone="no"?>
<!DOCTYPE svg PUBLIC "-//W3C//DTD SVG 20010904//EN"
 "http://www.w3.org/TR/2001/REC-SVG-20010904/DTD/svg10.dtd">
<svg version="1.0" xmlns="http://www.w3.org/2000/svg"
 width="257.000000pt" height="257.000000pt" viewBox="0 0 257.000000 257.000000"
 preserveAspectRatio="xMidYMid meet">
<metadata>
Created by potrace 1.11, written by Peter Selinger 2001-2013
</metadata>
<g transform="translate(0.000000,257.000000) scale(0.100000,-0.100000)"
fill="#000000" stroke="none">
<path d="M1730 2540 c-19 -16 -41 -29 -48 -30 -7 0 -10 -4 -7 -10 3 -5 -3 -15
-14 -21 -10 -7 -17 -18 -14 -25 2 -6 -1 -15 -6 -19 -6 -3 -9 -10 -7 -14 3 -4
-10 -8 -29 -8 -21 -1 -44 -10 -62 -27 -32 -30 -36 -31 -52 -12 -9 11 -8 15 5
20 9 4 14 9 10 13 -3 4 19 24 50 46 39 28 52 43 45 50 -19 19 -70 -17 -134
-93 -10 -11 -15 -25 -12 -30 4 -6 -2 -10 -13 -10 -10 0 -37 -16 -59 -35 -48
-41 -54 -42 -50 -12 2 24 51 76 97 104 32 19 37 28 19 39 -6 3 -24 -3 -40 -15
-15 -11 -31 -21 -34 -21 -3 0 -22 -17 -40 -37 -19 -21 -35 -35 -35 -30 0 12
-53 -19 -87 -52 -18 -17 -29 -31 -25 -31 4 0 2 -4 -5 -8 -6 -4 -13 -16 -15
-27 -3 -18 -17 -33 -89 -101 -22 -20 -34 -2 -18 28 16 29 70 83 92 91 18 7 24
47 7 47 -5 0 -10 -4 -10 -10 0 -5 -6 -10 -14 -10 -19 0 -106 -87 -106 -107 0
-9 -6 -13 -14 -10 -8 3 -23 -3 -34 -14 -12 -10 -24 -19 -28 -19 -12 0 -65 -63
-75 -88 -5 -13 -9 -32 -9 -43 0 -10 -14 -32 -31 -49 -18 -16 -28 -30 -23 -30
5 0 3 -4 -4 -9 -23 -14 -26 -79 -6 -102 17 -19 17 -21 -18 -54 -20 -19 -38
-47 -41 -63 -6 -28 11 -92 28 -104 5 -4 3 -14 -7 -25 -27 -30 -34 -90 -13
-113 10 -11 24 -20 32 -20 8 0 12 -4 9 -9 -3 -5 -8 -24 -11 -43 -5 -27 0 -41
26 -74 19 -26 32 -56 35 -80 2 -22 6 -50 9 -64 4 -14 7 -127 7 -252 l1 -227
-33 -48 -33 -48 -182 -3 -183 -2 -76 117 c-112 174 -94 160 -211 156 -54 -2
-100 -5 -102 -6 -4 -5 -43 -394 -43 -435 0 -26 21 -61 96 -165 53 -73 100
-135 104 -140 3 -4 119 -28 256 -52 l249 -45 516 -7 516 -6 26 35 c15 19 27
40 27 46 0 7 4 12 9 12 10 0 97 122 93 132 -1 5 2 8 7 8 8 0 111 135 111 146
0 3 11 17 25 32 14 15 25 32 25 39 0 7 4 13 9 13 5 0 18 15 29 34 11 18 30 45
43 60 13 15 29 42 36 59 38 106 98 273 148 412 31 88 63 174 71 192 8 17 14
35 14 40 0 4 10 29 22 55 18 39 26 46 48 45 21 -2 26 3 28 26 2 19 9 27 20 26
39 -4 42 0 42 62 0 56 -2 61 -20 56 -11 -3 -20 -1 -20 3 0 5 -13 7 -30 5 -16
-2 -33 1 -36 7 -4 5 -10 76 -14 156 -9 148 -5 173 28 180 7 1 25 10 39 19 21
14 24 22 20 50 -5 26 -2 36 14 46 26 16 25 68 -2 93 -13 11 -35 19 -59 19 -33
0 -39 3 -43 25 -3 14 -2 26 2 28 25 9 40 28 32 41 -7 11 -13 10 -34 -3 -16
-11 -34 -15 -52 -10 l-26 6 20 20 c24 21 25 31 10 60 -14 26 -66 47 -105 41
-57 -9 -50 50 8 69 6 2 9 12 5 21 -6 16 -11 15 -48 -10 -29 -19 -52 -26 -75
-24 -18 1 -41 -2 -52 -8 -17 -9 -21 -7 -26 12 -6 22 23 58 56 70 10 3 10 7 1
17 -10 11 -20 8 -55 -15 -31 -21 -53 -28 -79 -26 -28 2 -46 -5 -82 -33 -47
-36 -60 -36 -47 -1 10 25 78 93 102 101 20 6 23 19 7 29 -12 8 -82 -38 -108
-71 -17 -21 -17 -21 -40 -3 -39 32 -94 25 -140 -16 -45 -41 -53 -43 -49 -12 4
29 33 62 86 99 23 16 40 33 37 39 -10 16 -30 10 -65 -21z m-435 -220 c-4 -6
-1 -17 5 -25 10 -12 7 -17 -14 -26 -14 -7 -26 -16 -26 -21 0 -4 -6 -8 -14 -8
-8 0 -16 -7 -20 -15 -7 -20 -33 -19 -33 1 0 17 82 104 98 104 6 0 7 -5 4 -10z
m-271 -185 c-4 -8 -2 -15 4 -15 6 0 9 -6 8 -12 -3 -24 -17 -38 -36 -38 -10 0
-20 -4 -22 -8 -1 -4 -20 -18 -40 -31 -74 -45 -34 22 63 106 19 17 29 16 23 -2z
m1516 -71 c12 -12 12 -16 -1 -29 -16 -16 -126 -28 -134 -15 -5 8 43 55 65 63
20 7 51 -2 70 -19z m-40 -99 c10 -12 10 -18 0 -30 -13 -16 -50 -21 -50 -7 0 5
-11 15 -25 22 -13 7 -22 17 -19 22 9 14 81 9 94 -7z"/>
</g>
</svg>
